<mxfile host="app.diagrams.net" modified="2023-04-15T17:22:02.402Z" agent="Mozilla/5.0 (Windows NT 10.0; Win64; x64) AppleWebKit/537.36 (KHTML, like Gecko) Chrome/102.0.0.0 Safari/537.36" etag="UfwWIc-WDqd403a66tUq" version="21.1.8" type="github">
  <diagram name="Page-1" id="ZBTwIpBx9LZagbIg5TOg">
    <mxGraphModel dx="2625" dy="1373" grid="1" gridSize="10" guides="1" tooltips="1" connect="1" arrows="1" fold="1" page="1" pageScale="1" pageWidth="1169" pageHeight="1654" math="0" shadow="0">
      <root>
        <mxCell id="0" />
        <mxCell id="1" parent="0" />
        <mxCell id="S1qVPpaczXhBx_FuQNz0-1" value="权限" style="ellipse;whiteSpace=wrap;html=1;shadow=0;fontFamily=Helvetica;fontSize=20;fontColor=#FFFFFF;align=center;strokeWidth=3;fillColor=#1699D3;strokeColor=none;" vertex="1" parent="1">
          <mxGeometry x="526.5" y="230" width="120" height="120" as="geometry" />
        </mxCell>
        <mxCell id="S1qVPpaczXhBx_FuQNz0-2" value="学生" style="ellipse;whiteSpace=wrap;html=1;shadow=0;fontFamily=Helvetica;fontSize=20;fontColor=#FFFFFF;align=center;strokeWidth=3;fillColor=#F08705;strokeColor=none;gradientColor=none;" vertex="1" parent="1">
          <mxGeometry x="1106.5" y="200" width="120" height="120" as="geometry" />
        </mxCell>
        <mxCell id="S1qVPpaczXhBx_FuQNz0-3" value="用户" style="ellipse;whiteSpace=wrap;html=1;shadow=0;fontFamily=Helvetica;fontSize=20;fontColor=#FFFFFF;align=center;strokeWidth=3;fillColor=#E85642;strokeColor=none;" vertex="1" parent="1">
          <mxGeometry x="1806.5" y="495" width="120" height="120" as="geometry" />
        </mxCell>
        <mxCell id="S1qVPpaczXhBx_FuQNz0-5" value="角色" style="ellipse;whiteSpace=wrap;html=1;shadow=0;fontFamily=Helvetica;fontSize=20;fontColor=#FFFFFF;align=center;strokeWidth=3;fillColor=#736ca8;strokeColor=none;" vertex="1" parent="1">
          <mxGeometry x="1714" y="1130" width="120" height="120" as="geometry" />
        </mxCell>
        <mxCell id="S1qVPpaczXhBx_FuQNz0-6" value="学校" style="ellipse;whiteSpace=wrap;html=1;shadow=0;fontFamily=Helvetica;fontSize=20;fontColor=#FFFFFF;align=center;strokeWidth=3;fillColor=#F08705;strokeColor=none;" vertex="1" parent="1">
          <mxGeometry x="1166.5" y="1267.5" width="120" height="120" as="geometry" />
        </mxCell>
        <mxCell id="S1qVPpaczXhBx_FuQNz0-7" value="职位" style="ellipse;whiteSpace=wrap;html=1;shadow=0;fontFamily=Helvetica;fontSize=20;fontColor=#FFFFFF;align=center;strokeWidth=3;fillColor=#E85642;strokeColor=none;" vertex="1" parent="1">
          <mxGeometry x="561.5" y="1130" width="120" height="120" as="geometry" />
        </mxCell>
        <mxCell id="S1qVPpaczXhBx_FuQNz0-8" value="ID" style="rounded=1;fillColor=#f5af58;strokeColor=none;strokeWidth=3;shadow=0;html=1;fontColor=#FFFFFF;" vertex="1" parent="1">
          <mxGeometry x="976.5" y="370" width="120" height="40" as="geometry" />
        </mxCell>
        <mxCell id="S1qVPpaczXhBx_FuQNz0-9" value="路径" style="rounded=1;fillColor=#64BBE2;strokeColor=none;strokeWidth=3;shadow=0;html=1;fontColor=#FFFFFF;" vertex="1" parent="1">
          <mxGeometry x="351.5" y="375" width="130" height="40" as="geometry" />
        </mxCell>
        <mxCell id="S1qVPpaczXhBx_FuQNz0-10" style="endArrow=none;strokeWidth=6;strokeColor=#1699D3;html=1;" edge="1" parent="1" source="S1qVPpaczXhBx_FuQNz0-166" target="S1qVPpaczXhBx_FuQNz0-1">
          <mxGeometry relative="1" as="geometry" />
        </mxCell>
        <mxCell id="S1qVPpaczXhBx_FuQNz0-11" style="endArrow=none;strokeWidth=6;strokeColor=#f08705;html=1;" edge="1" parent="1" source="S1qVPpaczXhBx_FuQNz0-166" target="S1qVPpaczXhBx_FuQNz0-2">
          <mxGeometry relative="1" as="geometry" />
        </mxCell>
        <mxCell id="S1qVPpaczXhBx_FuQNz0-12" style="endArrow=none;strokeWidth=6;strokeColor=#E85642;html=1;" edge="1" parent="1" source="S1qVPpaczXhBx_FuQNz0-166" target="S1qVPpaczXhBx_FuQNz0-3">
          <mxGeometry relative="1" as="geometry" />
        </mxCell>
        <mxCell id="S1qVPpaczXhBx_FuQNz0-14" style="endArrow=none;strokeWidth=6;strokeColor=#736CA8;html=1;" edge="1" parent="1" source="S1qVPpaczXhBx_FuQNz0-166" target="S1qVPpaczXhBx_FuQNz0-167">
          <mxGeometry relative="1" as="geometry" />
        </mxCell>
        <mxCell id="S1qVPpaczXhBx_FuQNz0-15" style="endArrow=none;strokeWidth=6;strokeColor=#736ca8;html=1;" edge="1" parent="1" source="S1qVPpaczXhBx_FuQNz0-166" target="S1qVPpaczXhBx_FuQNz0-5">
          <mxGeometry relative="1" as="geometry" />
        </mxCell>
        <mxCell id="S1qVPpaczXhBx_FuQNz0-16" value="" style="edgeStyle=none;endArrow=none;strokeWidth=6;strokeColor=#F08705;html=1;" edge="1" parent="1" source="S1qVPpaczXhBx_FuQNz0-166" target="S1qVPpaczXhBx_FuQNz0-6">
          <mxGeometry x="184" y="185" width="100" height="100" as="geometry">
            <mxPoint x="184" y="285" as="sourcePoint" />
            <mxPoint x="284" y="185" as="targetPoint" />
          </mxGeometry>
        </mxCell>
        <mxCell id="S1qVPpaczXhBx_FuQNz0-17" value="" style="edgeStyle=none;endArrow=none;strokeWidth=6;strokeColor=#E85642;html=1;" edge="1" parent="1" source="S1qVPpaczXhBx_FuQNz0-166" target="S1qVPpaczXhBx_FuQNz0-7">
          <mxGeometry x="184" y="185" width="100" height="100" as="geometry">
            <mxPoint x="184" y="285" as="sourcePoint" />
            <mxPoint x="284" y="185" as="targetPoint" />
          </mxGeometry>
        </mxCell>
        <mxCell id="S1qVPpaczXhBx_FuQNz0-18" value="id" style="rounded=1;fillColor=#64BBE2;strokeColor=none;strokeWidth=3;shadow=0;html=1;fontColor=#FFFFFF;" vertex="1" parent="1">
          <mxGeometry x="421.5" y="425" width="130" height="40" as="geometry" />
        </mxCell>
        <mxCell id="S1qVPpaczXhBx_FuQNz0-19" value="父ID" style="rounded=1;fillColor=#64BBE2;strokeColor=none;strokeWidth=3;shadow=0;html=1;fontColor=#FFFFFF;" vertex="1" parent="1">
          <mxGeometry x="321.5" y="305" width="130" height="40" as="geometry" />
        </mxCell>
        <mxCell id="S1qVPpaczXhBx_FuQNz0-20" value="备注" style="rounded=1;fillColor=#64BBE2;strokeColor=none;strokeWidth=3;shadow=0;html=1;fontColor=#FFFFFF;" vertex="1" parent="1">
          <mxGeometry x="321.5" y="230" width="130" height="40" as="geometry" />
        </mxCell>
        <mxCell id="S1qVPpaczXhBx_FuQNz0-21" value="是否展示" style="rounded=1;fillColor=#64BBE2;strokeColor=none;strokeWidth=3;shadow=0;html=1;fontColor=#FFFFFF;" vertex="1" parent="1">
          <mxGeometry x="361.5" y="165" width="130" height="40" as="geometry" />
        </mxCell>
        <mxCell id="S1qVPpaczXhBx_FuQNz0-22" value="类型" style="rounded=1;fillColor=#64BBE2;strokeColor=none;strokeWidth=3;shadow=0;html=1;fontColor=#FFFFFF;" vertex="1" parent="1">
          <mxGeometry x="411.5" y="105" width="130" height="40" as="geometry" />
        </mxCell>
        <mxCell id="S1qVPpaczXhBx_FuQNz0-23" value="Donkey" style="rounded=1;fillColor=#64BBE2;strokeColor=none;strokeWidth=3;shadow=0;html=1;fontColor=#FFFFFF;" vertex="1" parent="1">
          <mxGeometry x="491.5" y="45" width="130" height="40" as="geometry" />
        </mxCell>
        <mxCell id="S1qVPpaczXhBx_FuQNz0-24" value="创建时间" style="rounded=1;fillColor=#64BBE2;strokeColor=none;strokeWidth=3;shadow=0;html=1;fontColor=#FFFFFF;" vertex="1" parent="1">
          <mxGeometry x="611.5" y="105" width="130" height="40" as="geometry" />
        </mxCell>
        <mxCell id="S1qVPpaczXhBx_FuQNz0-25" value="权限id" style="rounded=1;fillColor=#64BBE2;strokeColor=none;strokeWidth=3;shadow=0;html=1;fontColor=#FFFFFF;" vertex="1" parent="1">
          <mxGeometry x="666.5" y="165" width="130" height="40" as="geometry" />
        </mxCell>
        <mxCell id="S1qVPpaczXhBx_FuQNz0-26" value="跟新时间" style="rounded=1;fillColor=#64BBE2;strokeColor=none;strokeWidth=3;shadow=0;html=1;fontColor=#FFFFFF;" vertex="1" parent="1">
          <mxGeometry x="701.5" y="225" width="130" height="40" as="geometry" />
        </mxCell>
        <mxCell id="S1qVPpaczXhBx_FuQNz0-29" value="" style="edgeStyle=none;endArrow=none;strokeWidth=3;strokeColor=#64BBE2;html=1;" edge="1" parent="1" source="S1qVPpaczXhBx_FuQNz0-1" target="S1qVPpaczXhBx_FuQNz0-18">
          <mxGeometry x="-218.5" y="15" width="100" height="100" as="geometry">
            <mxPoint x="-218.5" y="115" as="sourcePoint" />
            <mxPoint x="-118.5" y="15" as="targetPoint" />
          </mxGeometry>
        </mxCell>
        <mxCell id="S1qVPpaczXhBx_FuQNz0-30" value="" style="edgeStyle=none;endArrow=none;strokeWidth=3;strokeColor=#64BBE2;html=1;" edge="1" parent="1" source="S1qVPpaczXhBx_FuQNz0-1" target="S1qVPpaczXhBx_FuQNz0-9">
          <mxGeometry x="-218.5" y="15" width="100" height="100" as="geometry">
            <mxPoint x="-218.5" y="115" as="sourcePoint" />
            <mxPoint x="-118.5" y="15" as="targetPoint" />
          </mxGeometry>
        </mxCell>
        <mxCell id="S1qVPpaczXhBx_FuQNz0-31" value="" style="edgeStyle=none;endArrow=none;strokeWidth=3;strokeColor=#64BBE2;html=1;" edge="1" parent="1" source="S1qVPpaczXhBx_FuQNz0-1" target="S1qVPpaczXhBx_FuQNz0-19">
          <mxGeometry x="-218.5" y="15" width="100" height="100" as="geometry">
            <mxPoint x="-218.5" y="115" as="sourcePoint" />
            <mxPoint x="-118.5" y="15" as="targetPoint" />
          </mxGeometry>
        </mxCell>
        <mxCell id="S1qVPpaczXhBx_FuQNz0-32" value="" style="edgeStyle=none;endArrow=none;strokeWidth=3;strokeColor=#64BBE2;html=1;" edge="1" parent="1" source="S1qVPpaczXhBx_FuQNz0-1" target="S1qVPpaczXhBx_FuQNz0-20">
          <mxGeometry x="-218.5" y="15" width="100" height="100" as="geometry">
            <mxPoint x="-218.5" y="115" as="sourcePoint" />
            <mxPoint x="-118.5" y="15" as="targetPoint" />
          </mxGeometry>
        </mxCell>
        <mxCell id="S1qVPpaczXhBx_FuQNz0-33" value="" style="edgeStyle=none;endArrow=none;strokeWidth=3;strokeColor=#64BBE2;html=1;" edge="1" parent="1" source="S1qVPpaczXhBx_FuQNz0-1" target="S1qVPpaczXhBx_FuQNz0-21">
          <mxGeometry x="-218.5" y="15" width="100" height="100" as="geometry">
            <mxPoint x="-218.5" y="115" as="sourcePoint" />
            <mxPoint x="-118.5" y="15" as="targetPoint" />
          </mxGeometry>
        </mxCell>
        <mxCell id="S1qVPpaczXhBx_FuQNz0-34" value="" style="edgeStyle=none;endArrow=none;strokeWidth=3;strokeColor=#64BBE2;html=1;" edge="1" parent="1" source="S1qVPpaczXhBx_FuQNz0-1" target="S1qVPpaczXhBx_FuQNz0-22">
          <mxGeometry x="-218.5" y="15" width="100" height="100" as="geometry">
            <mxPoint x="-218.5" y="115" as="sourcePoint" />
            <mxPoint x="-118.5" y="15" as="targetPoint" />
          </mxGeometry>
        </mxCell>
        <mxCell id="S1qVPpaczXhBx_FuQNz0-35" value="" style="edgeStyle=none;endArrow=none;strokeWidth=3;strokeColor=#64BBE2;html=1;" edge="1" parent="1" source="S1qVPpaczXhBx_FuQNz0-1" target="S1qVPpaczXhBx_FuQNz0-23">
          <mxGeometry x="-218.5" y="15" width="100" height="100" as="geometry">
            <mxPoint x="-218.5" y="115" as="sourcePoint" />
            <mxPoint x="-118.5" y="15" as="targetPoint" />
          </mxGeometry>
        </mxCell>
        <mxCell id="S1qVPpaczXhBx_FuQNz0-36" value="" style="edgeStyle=none;endArrow=none;strokeWidth=3;strokeColor=#64BBE2;html=1;" edge="1" parent="1" source="S1qVPpaczXhBx_FuQNz0-1" target="S1qVPpaczXhBx_FuQNz0-24">
          <mxGeometry x="-218.5" y="15" width="100" height="100" as="geometry">
            <mxPoint x="-218.5" y="115" as="sourcePoint" />
            <mxPoint x="-118.5" y="15" as="targetPoint" />
          </mxGeometry>
        </mxCell>
        <mxCell id="S1qVPpaczXhBx_FuQNz0-37" value="" style="edgeStyle=none;endArrow=none;strokeWidth=3;strokeColor=#64BBE2;html=1;" edge="1" parent="1" source="S1qVPpaczXhBx_FuQNz0-1" target="S1qVPpaczXhBx_FuQNz0-25">
          <mxGeometry x="-218.5" y="15" width="100" height="100" as="geometry">
            <mxPoint x="-218.5" y="115" as="sourcePoint" />
            <mxPoint x="-118.5" y="15" as="targetPoint" />
          </mxGeometry>
        </mxCell>
        <mxCell id="S1qVPpaczXhBx_FuQNz0-38" value="" style="edgeStyle=none;endArrow=none;strokeWidth=3;strokeColor=#64BBE2;html=1;" edge="1" parent="1" source="S1qVPpaczXhBx_FuQNz0-1" target="S1qVPpaczXhBx_FuQNz0-26">
          <mxGeometry x="-218.5" y="15" width="100" height="100" as="geometry">
            <mxPoint x="-218.5" y="115" as="sourcePoint" />
            <mxPoint x="-118.5" y="15" as="targetPoint" />
          </mxGeometry>
        </mxCell>
        <mxCell id="S1qVPpaczXhBx_FuQNz0-39" value="姓名" style="rounded=1;fillColor=#f5af58;strokeColor=none;strokeWidth=3;shadow=0;html=1;fontColor=#FFFFFF;" vertex="1" parent="1">
          <mxGeometry x="916.5" y="300" width="120" height="40" as="geometry" />
        </mxCell>
        <mxCell id="S1qVPpaczXhBx_FuQNz0-40" value="年龄" style="rounded=1;fillColor=#f5af58;strokeColor=none;strokeWidth=3;shadow=0;html=1;fontColor=#FFFFFF;" vertex="1" parent="1">
          <mxGeometry x="906.5" y="230" width="120" height="40" as="geometry" />
        </mxCell>
        <mxCell id="S1qVPpaczXhBx_FuQNz0-41" value="电话" style="rounded=1;fillColor=#f5af58;strokeColor=none;strokeWidth=3;shadow=0;html=1;fontColor=#FFFFFF;" vertex="1" parent="1">
          <mxGeometry x="926.5" y="160" width="120" height="40" as="geometry" />
        </mxCell>
        <mxCell id="S1qVPpaczXhBx_FuQNz0-42" value="专业" style="rounded=1;fillColor=#f5af58;strokeColor=none;strokeWidth=3;shadow=0;html=1;fontColor=#FFFFFF;" vertex="1" parent="1">
          <mxGeometry x="966.5" y="100" width="120" height="40" as="geometry" />
        </mxCell>
        <mxCell id="S1qVPpaczXhBx_FuQNz0-43" value="学校" style="rounded=1;fillColor=#f5af58;strokeColor=none;strokeWidth=3;shadow=0;html=1;fontColor=#FFFFFF;" vertex="1" parent="1">
          <mxGeometry x="1036.5" y="40" width="120" height="40" as="geometry" />
        </mxCell>
        <mxCell id="S1qVPpaczXhBx_FuQNz0-44" value="详细地址" style="rounded=1;fillColor=#f5af58;strokeColor=none;strokeWidth=3;shadow=0;html=1;fontColor=#FFFFFF;" vertex="1" parent="1">
          <mxGeometry x="1166.5" y="40" width="120" height="40" as="geometry" />
        </mxCell>
        <mxCell id="S1qVPpaczXhBx_FuQNz0-45" value="省份" style="rounded=1;fillColor=#f5af58;strokeColor=none;strokeWidth=3;shadow=0;html=1;fontColor=#FFFFFF;" vertex="1" parent="1">
          <mxGeometry x="1236.5" y="100" width="120" height="40" as="geometry" />
        </mxCell>
        <mxCell id="S1qVPpaczXhBx_FuQNz0-46" value="城市" style="rounded=1;fillColor=#f5af58;strokeColor=none;strokeWidth=3;shadow=0;html=1;fontColor=#FFFFFF;" vertex="1" parent="1">
          <mxGeometry x="1286.5" y="160" width="120" height="40" as="geometry" />
        </mxCell>
        <mxCell id="S1qVPpaczXhBx_FuQNz0-47" value="返乡时间" style="rounded=1;fillColor=#f5af58;strokeColor=none;strokeWidth=3;shadow=0;html=1;fontColor=#FFFFFF;" vertex="1" parent="1">
          <mxGeometry x="1301.5" y="230" width="120" height="40" as="geometry" />
        </mxCell>
        <mxCell id="S1qVPpaczXhBx_FuQNz0-48" value="预计离开时间" style="rounded=1;fillColor=#f5af58;strokeColor=none;strokeWidth=3;shadow=0;html=1;fontColor=#FFFFFF;" vertex="1" parent="1">
          <mxGeometry x="1296.5" y="290" width="120" height="40" as="geometry" />
        </mxCell>
        <mxCell id="S1qVPpaczXhBx_FuQNz0-49" value="头像" style="rounded=1;fillColor=#f5af58;strokeColor=none;strokeWidth=3;shadow=0;html=1;fontColor=#FFFFFF;" vertex="1" parent="1">
          <mxGeometry x="1241.5" y="360" width="120" height="40" as="geometry" />
        </mxCell>
        <mxCell id="S1qVPpaczXhBx_FuQNz0-50" value="" style="edgeStyle=none;endArrow=none;strokeWidth=3;strokeColor=#F5AF58;html=1;" edge="1" parent="1" source="S1qVPpaczXhBx_FuQNz0-2" target="S1qVPpaczXhBx_FuQNz0-8">
          <mxGeometry x="6.5" y="-20" width="100" height="100" as="geometry">
            <mxPoint x="6.5" y="80" as="sourcePoint" />
            <mxPoint x="106.5" y="-20" as="targetPoint" />
          </mxGeometry>
        </mxCell>
        <mxCell id="S1qVPpaczXhBx_FuQNz0-51" value="" style="edgeStyle=none;endArrow=none;strokeWidth=3;strokeColor=#F5AF58;html=1;" edge="1" parent="1" source="S1qVPpaczXhBx_FuQNz0-2" target="S1qVPpaczXhBx_FuQNz0-39">
          <mxGeometry x="6.5" y="-20" width="100" height="100" as="geometry">
            <mxPoint x="6.5" y="80" as="sourcePoint" />
            <mxPoint x="106.5" y="-20" as="targetPoint" />
          </mxGeometry>
        </mxCell>
        <mxCell id="S1qVPpaczXhBx_FuQNz0-52" value="" style="edgeStyle=none;endArrow=none;strokeWidth=3;strokeColor=#F5AF58;html=1;" edge="1" parent="1" source="S1qVPpaczXhBx_FuQNz0-2" target="S1qVPpaczXhBx_FuQNz0-40">
          <mxGeometry x="6.5" y="-20" width="100" height="100" as="geometry">
            <mxPoint x="6.5" y="80" as="sourcePoint" />
            <mxPoint x="106.5" y="-20" as="targetPoint" />
          </mxGeometry>
        </mxCell>
        <mxCell id="S1qVPpaczXhBx_FuQNz0-53" value="" style="edgeStyle=none;endArrow=none;strokeWidth=3;strokeColor=#F5AF58;html=1;" edge="1" parent="1" source="S1qVPpaczXhBx_FuQNz0-2" target="S1qVPpaczXhBx_FuQNz0-41">
          <mxGeometry x="6.5" y="-20" width="100" height="100" as="geometry">
            <mxPoint x="6.5" y="80" as="sourcePoint" />
            <mxPoint x="106.5" y="-20" as="targetPoint" />
          </mxGeometry>
        </mxCell>
        <mxCell id="S1qVPpaczXhBx_FuQNz0-54" value="" style="edgeStyle=none;endArrow=none;strokeWidth=3;strokeColor=#F5AF58;html=1;" edge="1" parent="1" source="S1qVPpaczXhBx_FuQNz0-2" target="S1qVPpaczXhBx_FuQNz0-42">
          <mxGeometry x="6.5" y="-20" width="100" height="100" as="geometry">
            <mxPoint x="6.5" y="80" as="sourcePoint" />
            <mxPoint x="106.5" y="-20" as="targetPoint" />
          </mxGeometry>
        </mxCell>
        <mxCell id="S1qVPpaczXhBx_FuQNz0-55" value="" style="edgeStyle=none;endArrow=none;strokeWidth=3;strokeColor=#F5AF58;html=1;" edge="1" parent="1" source="S1qVPpaczXhBx_FuQNz0-2" target="S1qVPpaczXhBx_FuQNz0-43">
          <mxGeometry x="6.5" y="-20" width="100" height="100" as="geometry">
            <mxPoint x="6.5" y="80" as="sourcePoint" />
            <mxPoint x="106.5" y="-20" as="targetPoint" />
          </mxGeometry>
        </mxCell>
        <mxCell id="S1qVPpaczXhBx_FuQNz0-56" value="" style="edgeStyle=none;endArrow=none;strokeWidth=3;strokeColor=#F5AF58;html=1;" edge="1" parent="1" source="S1qVPpaczXhBx_FuQNz0-2" target="S1qVPpaczXhBx_FuQNz0-44">
          <mxGeometry x="6.5" y="-20" width="100" height="100" as="geometry">
            <mxPoint x="6.5" y="80" as="sourcePoint" />
            <mxPoint x="106.5" y="-20" as="targetPoint" />
          </mxGeometry>
        </mxCell>
        <mxCell id="S1qVPpaczXhBx_FuQNz0-57" value="" style="edgeStyle=none;endArrow=none;strokeWidth=3;strokeColor=#F5AF58;html=1;" edge="1" parent="1" source="S1qVPpaczXhBx_FuQNz0-2" target="S1qVPpaczXhBx_FuQNz0-45">
          <mxGeometry x="6.5" y="-20" width="100" height="100" as="geometry">
            <mxPoint x="6.5" y="80" as="sourcePoint" />
            <mxPoint x="106.5" y="-20" as="targetPoint" />
          </mxGeometry>
        </mxCell>
        <mxCell id="S1qVPpaczXhBx_FuQNz0-58" value="" style="edgeStyle=none;endArrow=none;strokeWidth=3;strokeColor=#F5AF58;html=1;" edge="1" parent="1" source="S1qVPpaczXhBx_FuQNz0-2" target="S1qVPpaczXhBx_FuQNz0-46">
          <mxGeometry x="6.5" y="-20" width="100" height="100" as="geometry">
            <mxPoint x="6.5" y="80" as="sourcePoint" />
            <mxPoint x="106.5" y="-20" as="targetPoint" />
          </mxGeometry>
        </mxCell>
        <mxCell id="S1qVPpaczXhBx_FuQNz0-59" value="" style="edgeStyle=none;endArrow=none;strokeWidth=3;strokeColor=#F5AF58;html=1;" edge="1" parent="1" source="S1qVPpaczXhBx_FuQNz0-2" target="S1qVPpaczXhBx_FuQNz0-47">
          <mxGeometry x="6.5" y="-20" width="100" height="100" as="geometry">
            <mxPoint x="6.5" y="80" as="sourcePoint" />
            <mxPoint x="106.5" y="-20" as="targetPoint" />
          </mxGeometry>
        </mxCell>
        <mxCell id="S1qVPpaczXhBx_FuQNz0-60" value="" style="edgeStyle=none;endArrow=none;strokeWidth=3;strokeColor=#F5AF58;html=1;" edge="1" parent="1" source="S1qVPpaczXhBx_FuQNz0-2" target="S1qVPpaczXhBx_FuQNz0-48">
          <mxGeometry x="6.5" y="-20" width="100" height="100" as="geometry">
            <mxPoint x="6.5" y="80" as="sourcePoint" />
            <mxPoint x="106.5" y="-20" as="targetPoint" />
          </mxGeometry>
        </mxCell>
        <mxCell id="S1qVPpaczXhBx_FuQNz0-61" value="" style="edgeStyle=none;endArrow=none;strokeWidth=3;strokeColor=#F5AF58;html=1;" edge="1" parent="1" source="S1qVPpaczXhBx_FuQNz0-2" target="S1qVPpaczXhBx_FuQNz0-49">
          <mxGeometry x="6.5" y="-20" width="100" height="100" as="geometry">
            <mxPoint x="6.5" y="80" as="sourcePoint" />
            <mxPoint x="106.5" y="-20" as="targetPoint" />
          </mxGeometry>
        </mxCell>
        <mxCell id="S1qVPpaczXhBx_FuQNz0-62" value="ID" style="rounded=1;fillColor=#f08e81;strokeColor=none;strokeWidth=3;shadow=0;html=1;fontColor=#FFFFFF;" vertex="1" parent="1">
          <mxGeometry x="1716.5" y="640" width="120" height="40" as="geometry" />
        </mxCell>
        <mxCell id="S1qVPpaczXhBx_FuQNz0-63" value="头像" style="rounded=1;fillColor=#f08e81;strokeColor=none;strokeWidth=3;shadow=0;html=1;fontColor=#FFFFFF;" vertex="1" parent="1">
          <mxGeometry x="2051.5" y="525" width="120" height="40" as="geometry" />
        </mxCell>
        <mxCell id="S1qVPpaczXhBx_FuQNz0-64" value="性别" style="rounded=1;fillColor=#f08e81;strokeColor=none;strokeWidth=3;shadow=0;html=1;fontColor=#FFFFFF;" vertex="1" parent="1">
          <mxGeometry x="1596.5" y="560" width="120" height="40" as="geometry" />
        </mxCell>
        <mxCell id="S1qVPpaczXhBx_FuQNz0-65" value="电话" style="rounded=1;fillColor=#f08e81;strokeColor=none;strokeWidth=3;shadow=0;html=1;fontColor=#FFFFFF;" vertex="1" parent="1">
          <mxGeometry x="1626.5" y="495" width="120" height="40" as="geometry" />
        </mxCell>
        <mxCell id="S1qVPpaczXhBx_FuQNz0-66" value="密码" style="rounded=1;fillColor=#f08e81;strokeColor=none;strokeWidth=3;shadow=0;html=1;fontColor=#FFFFFF;" vertex="1" parent="1">
          <mxGeometry x="1646.5" y="415" width="120" height="40" as="geometry" />
        </mxCell>
        <mxCell id="S1qVPpaczXhBx_FuQNz0-67" value="邮箱" style="rounded=1;fillColor=#f08e81;strokeColor=none;strokeWidth=3;shadow=0;html=1;fontColor=#FFFFFF;" vertex="1" parent="1">
          <mxGeometry x="1736.5" y="345" width="120" height="40" as="geometry" />
        </mxCell>
        <mxCell id="S1qVPpaczXhBx_FuQNz0-68" value="状态" style="rounded=1;fillColor=#f08e81;strokeColor=none;strokeWidth=3;shadow=0;html=1;fontColor=#FFFFFF;" vertex="1" parent="1">
          <mxGeometry x="1871.5" y="290" width="120" height="40" as="geometry" />
        </mxCell>
        <mxCell id="S1qVPpaczXhBx_FuQNz0-69" value="创建时间" style="rounded=1;fillColor=#f08e81;strokeColor=none;strokeWidth=3;shadow=0;html=1;fontColor=#FFFFFF;" vertex="1" parent="1">
          <mxGeometry x="1966.5" y="375" width="120" height="40" as="geometry" />
        </mxCell>
        <mxCell id="S1qVPpaczXhBx_FuQNz0-70" value="跟新时间" style="rounded=1;fillColor=#f08e81;strokeColor=none;strokeWidth=3;shadow=0;html=1;fontColor=#FFFFFF;" vertex="1" parent="1">
          <mxGeometry x="2021.5" y="445" width="120" height="40" as="geometry" />
        </mxCell>
        <mxCell id="S1qVPpaczXhBx_FuQNz0-71" value="详细地址" style="rounded=1;fillColor=#f08e81;strokeColor=none;strokeWidth=3;shadow=0;html=1;fontColor=#FFFFFF;" vertex="1" parent="1">
          <mxGeometry x="1796.5" y="700" width="120" height="40" as="geometry" />
        </mxCell>
        <mxCell id="S1qVPpaczXhBx_FuQNz0-72" value="年龄" style="rounded=1;fillColor=#f08e81;strokeColor=none;strokeWidth=3;shadow=0;html=1;fontColor=#FFFFFF;" vertex="1" parent="1">
          <mxGeometry x="1886.5" y="630" width="120" height="40" as="geometry" />
        </mxCell>
        <mxCell id="S1qVPpaczXhBx_FuQNz0-73" value="角色id" style="rounded=1;fillColor=#f08e81;strokeColor=none;strokeWidth=3;shadow=0;html=1;fontColor=#FFFFFF;" vertex="1" parent="1">
          <mxGeometry x="1981.5" y="585" width="120" height="40" as="geometry" />
        </mxCell>
        <mxCell id="S1qVPpaczXhBx_FuQNz0-74" value="" style="edgeStyle=none;endArrow=none;strokeWidth=3;strokeColor=#F08E81;html=1;" edge="1" parent="1" source="S1qVPpaczXhBx_FuQNz0-3" target="S1qVPpaczXhBx_FuQNz0-62">
          <mxGeometry x="136.5" y="230" width="100" height="100" as="geometry">
            <mxPoint x="136.5" y="330" as="sourcePoint" />
            <mxPoint x="236.5" y="230" as="targetPoint" />
          </mxGeometry>
        </mxCell>
        <mxCell id="S1qVPpaczXhBx_FuQNz0-75" value="" style="edgeStyle=none;endArrow=none;strokeWidth=3;strokeColor=#F08E81;html=1;" edge="1" parent="1" source="S1qVPpaczXhBx_FuQNz0-3" target="S1qVPpaczXhBx_FuQNz0-64">
          <mxGeometry x="136.5" y="230" width="100" height="100" as="geometry">
            <mxPoint x="136.5" y="330" as="sourcePoint" />
            <mxPoint x="236.5" y="230" as="targetPoint" />
          </mxGeometry>
        </mxCell>
        <mxCell id="S1qVPpaczXhBx_FuQNz0-76" value="" style="edgeStyle=none;endArrow=none;strokeWidth=3;strokeColor=#F08E81;html=1;" edge="1" parent="1" source="S1qVPpaczXhBx_FuQNz0-3" target="S1qVPpaczXhBx_FuQNz0-65">
          <mxGeometry x="136.5" y="230" width="100" height="100" as="geometry">
            <mxPoint x="136.5" y="330" as="sourcePoint" />
            <mxPoint x="236.5" y="230" as="targetPoint" />
          </mxGeometry>
        </mxCell>
        <mxCell id="S1qVPpaczXhBx_FuQNz0-77" value="" style="edgeStyle=none;endArrow=none;strokeWidth=3;strokeColor=#F08E81;html=1;" edge="1" parent="1" source="S1qVPpaczXhBx_FuQNz0-3" target="S1qVPpaczXhBx_FuQNz0-66">
          <mxGeometry x="136.5" y="230" width="100" height="100" as="geometry">
            <mxPoint x="136.5" y="330" as="sourcePoint" />
            <mxPoint x="236.5" y="230" as="targetPoint" />
          </mxGeometry>
        </mxCell>
        <mxCell id="S1qVPpaczXhBx_FuQNz0-78" value="" style="edgeStyle=none;endArrow=none;strokeWidth=3;strokeColor=#F08E81;html=1;" edge="1" parent="1" source="S1qVPpaczXhBx_FuQNz0-3" target="S1qVPpaczXhBx_FuQNz0-67">
          <mxGeometry x="136.5" y="230" width="100" height="100" as="geometry">
            <mxPoint x="136.5" y="330" as="sourcePoint" />
            <mxPoint x="236.5" y="230" as="targetPoint" />
          </mxGeometry>
        </mxCell>
        <mxCell id="S1qVPpaczXhBx_FuQNz0-79" value="" style="edgeStyle=none;endArrow=none;strokeWidth=3;strokeColor=#F08E81;html=1;" edge="1" parent="1" source="S1qVPpaczXhBx_FuQNz0-3" target="S1qVPpaczXhBx_FuQNz0-68">
          <mxGeometry x="136.5" y="230" width="100" height="100" as="geometry">
            <mxPoint x="136.5" y="330" as="sourcePoint" />
            <mxPoint x="236.5" y="230" as="targetPoint" />
          </mxGeometry>
        </mxCell>
        <mxCell id="S1qVPpaczXhBx_FuQNz0-80" value="" style="edgeStyle=none;endArrow=none;strokeWidth=3;strokeColor=#F08E81;html=1;" edge="1" parent="1" source="S1qVPpaczXhBx_FuQNz0-3" target="S1qVPpaczXhBx_FuQNz0-69">
          <mxGeometry x="136.5" y="230" width="100" height="100" as="geometry">
            <mxPoint x="136.5" y="330" as="sourcePoint" />
            <mxPoint x="236.5" y="230" as="targetPoint" />
          </mxGeometry>
        </mxCell>
        <mxCell id="S1qVPpaczXhBx_FuQNz0-81" value="" style="edgeStyle=none;endArrow=none;strokeWidth=3;strokeColor=#F08E81;html=1;" edge="1" parent="1" source="S1qVPpaczXhBx_FuQNz0-3" target="S1qVPpaczXhBx_FuQNz0-70">
          <mxGeometry x="136.5" y="230" width="100" height="100" as="geometry">
            <mxPoint x="136.5" y="330" as="sourcePoint" />
            <mxPoint x="236.5" y="230" as="targetPoint" />
          </mxGeometry>
        </mxCell>
        <mxCell id="S1qVPpaczXhBx_FuQNz0-82" value="" style="edgeStyle=none;endArrow=none;strokeWidth=3;strokeColor=#F08E81;html=1;" edge="1" parent="1" source="S1qVPpaczXhBx_FuQNz0-3" target="S1qVPpaczXhBx_FuQNz0-63">
          <mxGeometry x="136.5" y="230" width="100" height="100" as="geometry">
            <mxPoint x="136.5" y="330" as="sourcePoint" />
            <mxPoint x="236.5" y="230" as="targetPoint" />
          </mxGeometry>
        </mxCell>
        <mxCell id="S1qVPpaczXhBx_FuQNz0-83" value="" style="edgeStyle=none;endArrow=none;strokeWidth=3;strokeColor=#F08E81;html=1;" edge="1" parent="1" source="S1qVPpaczXhBx_FuQNz0-3" target="S1qVPpaczXhBx_FuQNz0-73">
          <mxGeometry x="136.5" y="230" width="100" height="100" as="geometry">
            <mxPoint x="136.5" y="330" as="sourcePoint" />
            <mxPoint x="236.5" y="230" as="targetPoint" />
          </mxGeometry>
        </mxCell>
        <mxCell id="S1qVPpaczXhBx_FuQNz0-84" value="" style="edgeStyle=none;endArrow=none;strokeWidth=3;strokeColor=#F08E81;html=1;" edge="1" parent="1" source="S1qVPpaczXhBx_FuQNz0-3" target="S1qVPpaczXhBx_FuQNz0-72">
          <mxGeometry x="136.5" y="230" width="100" height="100" as="geometry">
            <mxPoint x="136.5" y="330" as="sourcePoint" />
            <mxPoint x="236.5" y="230" as="targetPoint" />
          </mxGeometry>
        </mxCell>
        <mxCell id="S1qVPpaczXhBx_FuQNz0-85" value="" style="edgeStyle=none;endArrow=none;strokeWidth=3;strokeColor=#F08E81;html=1;" edge="1" parent="1" source="S1qVPpaczXhBx_FuQNz0-3" target="S1qVPpaczXhBx_FuQNz0-71">
          <mxGeometry x="136.5" y="230" width="100" height="100" as="geometry">
            <mxPoint x="136.5" y="330" as="sourcePoint" />
            <mxPoint x="236.5" y="230" as="targetPoint" />
          </mxGeometry>
        </mxCell>
        <mxCell id="S1qVPpaczXhBx_FuQNz0-108" value="ID" style="rounded=1;fillColor=#a29dc5;strokeColor=none;strokeWidth=3;shadow=0;html=1;fontColor=#FFFFFF;" vertex="1" parent="1">
          <mxGeometry x="1649" y="1045.5" width="120" height="40" as="geometry" />
        </mxCell>
        <mxCell id="S1qVPpaczXhBx_FuQNz0-109" value="权限列表" style="rounded=1;fillColor=#a29dc5;strokeColor=none;strokeWidth=3;shadow=0;html=1;fontColor=#FFFFFF;" vertex="1" parent="1">
          <mxGeometry x="1634" y="1260" width="120" height="40" as="geometry" />
        </mxCell>
        <mxCell id="S1qVPpaczXhBx_FuQNz0-110" value="角色名称" style="rounded=1;fillColor=#a29dc5;strokeColor=none;strokeWidth=3;shadow=0;html=1;fontColor=#FFFFFF;" vertex="1" parent="1">
          <mxGeometry x="1804" y="1072.5" width="120" height="40" as="geometry" />
        </mxCell>
        <mxCell id="S1qVPpaczXhBx_FuQNz0-111" value="角色等级" style="rounded=1;fillColor=#a29dc5;strokeColor=none;strokeWidth=3;shadow=0;html=1;fontColor=#FFFFFF;" vertex="1" parent="1">
          <mxGeometry x="1904" y="1152.5" width="120" height="40" as="geometry" />
        </mxCell>
        <mxCell id="S1qVPpaczXhBx_FuQNz0-112" value="备注" style="rounded=1;fillColor=#a29dc5;strokeColor=none;strokeWidth=3;shadow=0;html=1;fontColor=#FFFFFF;" vertex="1" parent="1">
          <mxGeometry x="1824" y="1290" width="120" height="40" as="geometry" />
        </mxCell>
        <mxCell id="S1qVPpaczXhBx_FuQNz0-113" value="创建时间" style="rounded=1;fillColor=#a29dc5;strokeColor=none;strokeWidth=3;shadow=0;html=1;fontColor=#FFFFFF;" vertex="1" parent="1">
          <mxGeometry x="1554" y="1170" width="120" height="40" as="geometry" />
        </mxCell>
        <mxCell id="S1qVPpaczXhBx_FuQNz0-114" value="" style="edgeStyle=none;endArrow=none;strokeWidth=3;strokeColor=#A29DC5;html=1;" edge="1" parent="1" source="S1qVPpaczXhBx_FuQNz0-5" target="S1qVPpaczXhBx_FuQNz0-111">
          <mxGeometry x="254" y="-145" width="100" height="100" as="geometry">
            <mxPoint x="254" y="-45" as="sourcePoint" />
            <mxPoint x="354" y="-145" as="targetPoint" />
          </mxGeometry>
        </mxCell>
        <mxCell id="S1qVPpaczXhBx_FuQNz0-115" value="" style="edgeStyle=none;endArrow=none;strokeWidth=3;strokeColor=#A29DC5;html=1;" edge="1" parent="1" source="S1qVPpaczXhBx_FuQNz0-5" target="S1qVPpaczXhBx_FuQNz0-112">
          <mxGeometry x="254" y="-145" width="100" height="100" as="geometry">
            <mxPoint x="254" y="-45" as="sourcePoint" />
            <mxPoint x="354" y="-145" as="targetPoint" />
          </mxGeometry>
        </mxCell>
        <mxCell id="S1qVPpaczXhBx_FuQNz0-116" value="" style="edgeStyle=none;endArrow=none;strokeWidth=3;strokeColor=#A29DC5;html=1;" edge="1" parent="1" source="S1qVPpaczXhBx_FuQNz0-5" target="S1qVPpaczXhBx_FuQNz0-109">
          <mxGeometry x="254" y="-145" width="100" height="100" as="geometry">
            <mxPoint x="254" y="-45" as="sourcePoint" />
            <mxPoint x="354" y="-145" as="targetPoint" />
          </mxGeometry>
        </mxCell>
        <mxCell id="S1qVPpaczXhBx_FuQNz0-117" value="" style="edgeStyle=none;endArrow=none;strokeWidth=3;strokeColor=#A29DC5;html=1;" edge="1" parent="1" source="S1qVPpaczXhBx_FuQNz0-5" target="S1qVPpaczXhBx_FuQNz0-113">
          <mxGeometry x="254" y="-145" width="100" height="100" as="geometry">
            <mxPoint x="254" y="-45" as="sourcePoint" />
            <mxPoint x="354" y="-145" as="targetPoint" />
          </mxGeometry>
        </mxCell>
        <mxCell id="S1qVPpaczXhBx_FuQNz0-118" value="" style="edgeStyle=none;endArrow=none;strokeWidth=3;strokeColor=#A29DC5;html=1;" edge="1" parent="1" source="S1qVPpaczXhBx_FuQNz0-5" target="S1qVPpaczXhBx_FuQNz0-108">
          <mxGeometry x="254" y="-145" width="100" height="100" as="geometry">
            <mxPoint x="254" y="-45" as="sourcePoint" />
            <mxPoint x="354" y="-145" as="targetPoint" />
          </mxGeometry>
        </mxCell>
        <mxCell id="S1qVPpaczXhBx_FuQNz0-121" value="学生数量" style="rounded=1;fillColor=#f5af58;strokeColor=none;strokeWidth=3;shadow=0;html=1;fontColor=#FFFFFF;" vertex="1" parent="1">
          <mxGeometry x="1370" y="1307.5" width="120" height="40" as="geometry" />
        </mxCell>
        <mxCell id="S1qVPpaczXhBx_FuQNz0-122" value="就业率" style="rounded=1;fillColor=#f5af58;strokeColor=none;strokeWidth=3;shadow=0;html=1;fontColor=#FFFFFF;" vertex="1" parent="1">
          <mxGeometry x="1286.5" y="1430" width="120" height="40" as="geometry" />
        </mxCell>
        <mxCell id="S1qVPpaczXhBx_FuQNz0-123" value="详细地址" style="rounded=1;fillColor=#f5af58;strokeColor=none;strokeWidth=3;shadow=0;html=1;fontColor=#FFFFFF;" vertex="1" parent="1">
          <mxGeometry x="1186.5" y="1487.5" width="120" height="40" as="geometry" />
        </mxCell>
        <mxCell id="S1qVPpaczXhBx_FuQNz0-124" value="地址" style="rounded=1;fillColor=#f5af58;strokeColor=none;strokeWidth=3;shadow=0;html=1;fontColor=#FFFFFF;" vertex="1" parent="1">
          <mxGeometry x="1086.5" y="1430" width="120" height="40" as="geometry" />
        </mxCell>
        <mxCell id="S1qVPpaczXhBx_FuQNz0-125" value="专业" style="rounded=1;fillColor=#f5af58;strokeColor=none;strokeWidth=3;shadow=0;html=1;fontColor=#FFFFFF;" vertex="1" parent="1">
          <mxGeometry x="1006.5" y="1370" width="120" height="40" as="geometry" />
        </mxCell>
        <mxCell id="S1qVPpaczXhBx_FuQNz0-126" value="学校名称" style="rounded=1;fillColor=#f5af58;strokeColor=none;strokeWidth=3;shadow=0;html=1;fontColor=#FFFFFF;" vertex="1" parent="1">
          <mxGeometry x="966.5" y="1297.5" width="120" height="40" as="geometry" />
        </mxCell>
        <mxCell id="S1qVPpaczXhBx_FuQNz0-127" value="LOGO" style="rounded=1;fillColor=#f5af58;strokeColor=none;strokeWidth=3;shadow=0;html=1;fontColor=#FFFFFF;" vertex="1" parent="1">
          <mxGeometry x="971.5" y="1232.5" width="120" height="40" as="geometry" />
        </mxCell>
        <mxCell id="S1qVPpaczXhBx_FuQNz0-128" value="ID" style="rounded=1;fillColor=#f5af58;strokeColor=none;strokeWidth=3;shadow=0;html=1;fontColor=#FFFFFF;" vertex="1" parent="1">
          <mxGeometry x="1286.5" y="1190" width="120" height="40" as="geometry" />
        </mxCell>
        <mxCell id="S1qVPpaczXhBx_FuQNz0-133" value="" style="edgeStyle=none;endArrow=none;strokeWidth=3;strokeColor=#F5AF58;html=1;" edge="1" parent="1" source="S1qVPpaczXhBx_FuQNz0-6" target="S1qVPpaczXhBx_FuQNz0-121">
          <mxGeometry x="246.5" y="-2.5" width="100" height="100" as="geometry">
            <mxPoint x="246.5" y="97.5" as="sourcePoint" />
            <mxPoint x="346.5" y="-2.5" as="targetPoint" />
          </mxGeometry>
        </mxCell>
        <mxCell id="S1qVPpaczXhBx_FuQNz0-134" value="" style="edgeStyle=none;endArrow=none;strokeWidth=3;strokeColor=#F5AF58;html=1;" edge="1" parent="1" source="S1qVPpaczXhBx_FuQNz0-6" target="S1qVPpaczXhBx_FuQNz0-122">
          <mxGeometry x="246.5" y="-2.5" width="100" height="100" as="geometry">
            <mxPoint x="246.5" y="97.5" as="sourcePoint" />
            <mxPoint x="346.5" y="-2.5" as="targetPoint" />
          </mxGeometry>
        </mxCell>
        <mxCell id="S1qVPpaczXhBx_FuQNz0-135" value="" style="edgeStyle=none;endArrow=none;strokeWidth=3;strokeColor=#F5AF58;html=1;" edge="1" parent="1" source="S1qVPpaczXhBx_FuQNz0-6" target="S1qVPpaczXhBx_FuQNz0-123">
          <mxGeometry x="246.5" y="-2.5" width="100" height="100" as="geometry">
            <mxPoint x="246.5" y="97.5" as="sourcePoint" />
            <mxPoint x="346.5" y="-2.5" as="targetPoint" />
          </mxGeometry>
        </mxCell>
        <mxCell id="S1qVPpaczXhBx_FuQNz0-136" value="" style="edgeStyle=none;endArrow=none;strokeWidth=3;strokeColor=#F5AF58;html=1;" edge="1" parent="1" source="S1qVPpaczXhBx_FuQNz0-6" target="S1qVPpaczXhBx_FuQNz0-124">
          <mxGeometry x="246.5" y="-2.5" width="100" height="100" as="geometry">
            <mxPoint x="246.5" y="97.5" as="sourcePoint" />
            <mxPoint x="346.5" y="-2.5" as="targetPoint" />
          </mxGeometry>
        </mxCell>
        <mxCell id="S1qVPpaczXhBx_FuQNz0-137" value="" style="edgeStyle=none;endArrow=none;strokeWidth=3;strokeColor=#F5AF58;html=1;" edge="1" parent="1" source="S1qVPpaczXhBx_FuQNz0-6" target="S1qVPpaczXhBx_FuQNz0-125">
          <mxGeometry x="246.5" y="-2.5" width="100" height="100" as="geometry">
            <mxPoint x="246.5" y="97.5" as="sourcePoint" />
            <mxPoint x="346.5" y="-2.5" as="targetPoint" />
          </mxGeometry>
        </mxCell>
        <mxCell id="S1qVPpaczXhBx_FuQNz0-138" value="" style="edgeStyle=none;endArrow=none;strokeWidth=3;strokeColor=#F5AF58;html=1;" edge="1" parent="1" source="S1qVPpaczXhBx_FuQNz0-6" target="S1qVPpaczXhBx_FuQNz0-126">
          <mxGeometry x="246.5" y="-2.5" width="100" height="100" as="geometry">
            <mxPoint x="246.5" y="97.5" as="sourcePoint" />
            <mxPoint x="346.5" y="-2.5" as="targetPoint" />
          </mxGeometry>
        </mxCell>
        <mxCell id="S1qVPpaczXhBx_FuQNz0-139" value="" style="edgeStyle=none;endArrow=none;strokeWidth=3;strokeColor=#F5AF58;html=1;" edge="1" parent="1" source="S1qVPpaczXhBx_FuQNz0-6" target="S1qVPpaczXhBx_FuQNz0-127">
          <mxGeometry x="246.5" y="-2.5" width="100" height="100" as="geometry">
            <mxPoint x="246.5" y="97.5" as="sourcePoint" />
            <mxPoint x="346.5" y="-2.5" as="targetPoint" />
          </mxGeometry>
        </mxCell>
        <mxCell id="S1qVPpaczXhBx_FuQNz0-140" value="" style="edgeStyle=none;endArrow=none;strokeWidth=3;strokeColor=#F5AF58;html=1;" edge="1" parent="1" source="S1qVPpaczXhBx_FuQNz0-6" target="S1qVPpaczXhBx_FuQNz0-128">
          <mxGeometry x="246.5" y="-2.5" width="100" height="100" as="geometry">
            <mxPoint x="246.5" y="97.5" as="sourcePoint" />
            <mxPoint x="346.5" y="-2.5" as="targetPoint" />
          </mxGeometry>
        </mxCell>
        <mxCell id="S1qVPpaczXhBx_FuQNz0-141" value="薪资" style="rounded=1;fillColor=#f08e81;strokeColor=none;strokeWidth=3;shadow=0;html=1;fontColor=#FFFFFF;" vertex="1" parent="1">
          <mxGeometry x="626.5" y="965" width="120" height="40" as="geometry" />
        </mxCell>
        <mxCell id="S1qVPpaczXhBx_FuQNz0-142" value="工作内容" style="rounded=1;fillColor=#f08e81;strokeColor=none;strokeWidth=3;shadow=0;html=1;fontColor=#FFFFFF;" vertex="1" parent="1">
          <mxGeometry x="491.5" y="970" width="120" height="40" as="geometry" />
        </mxCell>
        <mxCell id="S1qVPpaczXhBx_FuQNz0-143" value="HR" style="rounded=1;fillColor=#f08e81;strokeColor=none;strokeWidth=3;shadow=0;html=1;fontColor=#FFFFFF;" vertex="1" parent="1">
          <mxGeometry x="426.5" y="1025" width="120" height="40" as="geometry" />
        </mxCell>
        <mxCell id="S1qVPpaczXhBx_FuQNz0-144" value="电话" style="rounded=1;fillColor=#f08e81;strokeColor=none;strokeWidth=3;shadow=0;html=1;fontColor=#FFFFFF;" vertex="1" parent="1">
          <mxGeometry x="371.5" y="1085" width="120" height="40" as="geometry" />
        </mxCell>
        <mxCell id="S1qVPpaczXhBx_FuQNz0-145" value="已雇佣人数" style="rounded=1;fillColor=#f08e81;strokeColor=none;strokeWidth=3;shadow=0;html=1;fontColor=#FFFFFF;" vertex="1" parent="1">
          <mxGeometry x="351.5" y="1140" width="120" height="40" as="geometry" />
        </mxCell>
        <mxCell id="S1qVPpaczXhBx_FuQNz0-146" value="雇佣人数" style="rounded=1;fillColor=#f08e81;strokeColor=none;strokeWidth=3;shadow=0;html=1;fontColor=#FFFFFF;" vertex="1" parent="1">
          <mxGeometry x="366.5" y="1205" width="120" height="40" as="geometry" />
        </mxCell>
        <mxCell id="S1qVPpaczXhBx_FuQNz0-147" value="公司名称" style="rounded=1;fillColor=#f08e81;strokeColor=none;strokeWidth=3;shadow=0;html=1;fontColor=#FFFFFF;" vertex="1" parent="1">
          <mxGeometry x="401.5" y="1267.5" width="120" height="40" as="geometry" />
        </mxCell>
        <mxCell id="S1qVPpaczXhBx_FuQNz0-148" value="岗位名称" style="rounded=1;fillColor=#f08e81;strokeColor=none;strokeWidth=3;shadow=0;html=1;fontColor=#FFFFFF;" vertex="1" parent="1">
          <mxGeometry x="471.5" y="1317.5" width="120" height="40" as="geometry" />
        </mxCell>
        <mxCell id="S1qVPpaczXhBx_FuQNz0-149" value="ID" style="rounded=1;fillColor=#f08e81;strokeColor=none;strokeWidth=3;shadow=0;html=1;fontColor=#FFFFFF;" vertex="1" parent="1">
          <mxGeometry x="581.5" y="1372.5" width="120" height="40" as="geometry" />
        </mxCell>
        <mxCell id="S1qVPpaczXhBx_FuQNz0-150" value="开始招聘时间" style="rounded=1;fillColor=#f08e81;strokeColor=none;strokeWidth=3;shadow=0;html=1;fontColor=#FFFFFF;" vertex="1" parent="1">
          <mxGeometry x="706.5" y="1307.5" width="120" height="40" as="geometry" />
        </mxCell>
        <mxCell id="S1qVPpaczXhBx_FuQNz0-151" value="截至招聘时间" style="rounded=1;fillColor=#f08e81;strokeColor=none;strokeWidth=3;shadow=0;html=1;fontColor=#FFFFFF;" vertex="1" parent="1">
          <mxGeometry x="766.5" y="1240" width="120" height="40" as="geometry" />
        </mxCell>
        <mxCell id="S1qVPpaczXhBx_FuQNz0-154" value="" style="edgeStyle=none;endArrow=none;strokeWidth=3;strokeColor=#F08E81;html=1;" edge="1" parent="1" source="S1qVPpaczXhBx_FuQNz0-7" target="S1qVPpaczXhBx_FuQNz0-141">
          <mxGeometry x="191.5" y="10" width="100" height="100" as="geometry">
            <mxPoint x="191.5" y="110" as="sourcePoint" />
            <mxPoint x="291.5" y="10" as="targetPoint" />
          </mxGeometry>
        </mxCell>
        <mxCell id="S1qVPpaczXhBx_FuQNz0-155" value="" style="edgeStyle=none;endArrow=none;strokeWidth=3;strokeColor=#F08E81;html=1;" edge="1" parent="1" source="S1qVPpaczXhBx_FuQNz0-7" target="S1qVPpaczXhBx_FuQNz0-142">
          <mxGeometry x="191.5" y="10" width="100" height="100" as="geometry">
            <mxPoint x="191.5" y="110" as="sourcePoint" />
            <mxPoint x="291.5" y="10" as="targetPoint" />
          </mxGeometry>
        </mxCell>
        <mxCell id="S1qVPpaczXhBx_FuQNz0-156" value="" style="edgeStyle=none;endArrow=none;strokeWidth=3;strokeColor=#F08E81;html=1;" edge="1" parent="1" source="S1qVPpaczXhBx_FuQNz0-7" target="S1qVPpaczXhBx_FuQNz0-143">
          <mxGeometry x="191.5" y="10" width="100" height="100" as="geometry">
            <mxPoint x="191.5" y="110" as="sourcePoint" />
            <mxPoint x="291.5" y="10" as="targetPoint" />
          </mxGeometry>
        </mxCell>
        <mxCell id="S1qVPpaczXhBx_FuQNz0-157" value="" style="edgeStyle=none;endArrow=none;strokeWidth=3;strokeColor=#F08E81;html=1;" edge="1" parent="1" source="S1qVPpaczXhBx_FuQNz0-7" target="S1qVPpaczXhBx_FuQNz0-144">
          <mxGeometry x="191.5" y="10" width="100" height="100" as="geometry">
            <mxPoint x="191.5" y="110" as="sourcePoint" />
            <mxPoint x="291.5" y="10" as="targetPoint" />
          </mxGeometry>
        </mxCell>
        <mxCell id="S1qVPpaczXhBx_FuQNz0-158" value="" style="edgeStyle=none;endArrow=none;strokeWidth=3;strokeColor=#F08E81;html=1;" edge="1" parent="1" source="S1qVPpaczXhBx_FuQNz0-7" target="S1qVPpaczXhBx_FuQNz0-145">
          <mxGeometry x="191.5" y="10" width="100" height="100" as="geometry">
            <mxPoint x="191.5" y="110" as="sourcePoint" />
            <mxPoint x="291.5" y="10" as="targetPoint" />
          </mxGeometry>
        </mxCell>
        <mxCell id="S1qVPpaczXhBx_FuQNz0-159" value="" style="edgeStyle=none;endArrow=none;strokeWidth=3;strokeColor=#F08E81;html=1;" edge="1" parent="1" source="S1qVPpaczXhBx_FuQNz0-7" target="S1qVPpaczXhBx_FuQNz0-146">
          <mxGeometry x="191.5" y="10" width="100" height="100" as="geometry">
            <mxPoint x="191.5" y="110" as="sourcePoint" />
            <mxPoint x="291.5" y="10" as="targetPoint" />
          </mxGeometry>
        </mxCell>
        <mxCell id="S1qVPpaczXhBx_FuQNz0-160" value="" style="edgeStyle=none;endArrow=none;strokeWidth=3;strokeColor=#F08E81;html=1;" edge="1" parent="1" source="S1qVPpaczXhBx_FuQNz0-7" target="S1qVPpaczXhBx_FuQNz0-147">
          <mxGeometry x="191.5" y="10" width="100" height="100" as="geometry">
            <mxPoint x="191.5" y="110" as="sourcePoint" />
            <mxPoint x="291.5" y="10" as="targetPoint" />
          </mxGeometry>
        </mxCell>
        <mxCell id="S1qVPpaczXhBx_FuQNz0-161" value="" style="edgeStyle=none;endArrow=none;strokeWidth=3;strokeColor=#F08E81;html=1;" edge="1" parent="1" source="S1qVPpaczXhBx_FuQNz0-7" target="S1qVPpaczXhBx_FuQNz0-148">
          <mxGeometry x="191.5" y="10" width="100" height="100" as="geometry">
            <mxPoint x="191.5" y="110" as="sourcePoint" />
            <mxPoint x="291.5" y="10" as="targetPoint" />
          </mxGeometry>
        </mxCell>
        <mxCell id="S1qVPpaczXhBx_FuQNz0-162" value="" style="edgeStyle=none;endArrow=none;strokeWidth=3;strokeColor=#F08E81;html=1;" edge="1" parent="1" source="S1qVPpaczXhBx_FuQNz0-7" target="S1qVPpaczXhBx_FuQNz0-149">
          <mxGeometry x="191.5" y="10" width="100" height="100" as="geometry">
            <mxPoint x="191.5" y="110" as="sourcePoint" />
            <mxPoint x="291.5" y="10" as="targetPoint" />
          </mxGeometry>
        </mxCell>
        <mxCell id="S1qVPpaczXhBx_FuQNz0-163" value="" style="edgeStyle=none;endArrow=none;strokeWidth=3;strokeColor=#F08E81;html=1;" edge="1" parent="1" source="S1qVPpaczXhBx_FuQNz0-7" target="S1qVPpaczXhBx_FuQNz0-150">
          <mxGeometry x="191.5" y="10" width="100" height="100" as="geometry">
            <mxPoint x="191.5" y="110" as="sourcePoint" />
            <mxPoint x="291.5" y="10" as="targetPoint" />
          </mxGeometry>
        </mxCell>
        <mxCell id="S1qVPpaczXhBx_FuQNz0-164" value="" style="edgeStyle=none;endArrow=none;strokeWidth=3;strokeColor=#F08E81;html=1;" edge="1" parent="1" source="S1qVPpaczXhBx_FuQNz0-7" target="S1qVPpaczXhBx_FuQNz0-151">
          <mxGeometry x="191.5" y="10" width="100" height="100" as="geometry">
            <mxPoint x="191.5" y="110" as="sourcePoint" />
            <mxPoint x="291.5" y="10" as="targetPoint" />
          </mxGeometry>
        </mxCell>
        <mxCell id="S1qVPpaczXhBx_FuQNz0-165" style="edgeStyle=orthogonalEdgeStyle;rounded=0;html=1;exitX=0.75;exitY=0;entryX=0.75;entryY=0;startArrow=none;startFill=0;endArrow=block;endFill=1;jettySize=auto;orthogonalLoop=1;strokeColor=#12aab5;strokeWidth=6;fontSize=20;fontColor=#2F5B7C;" edge="1" parent="1" source="S1qVPpaczXhBx_FuQNz0-65" target="S1qVPpaczXhBx_FuQNz0-65">
          <mxGeometry relative="1" as="geometry" />
        </mxCell>
        <mxCell id="S1qVPpaczXhBx_FuQNz0-166" value="System" style="ellipse;whiteSpace=wrap;html=1;shadow=0;fontFamily=Helvetica;fontSize=30;fontColor=#2F5B7C;align=center;strokeColor=#2F5B7C;strokeWidth=6;fillColor=#FFFFFF;fontStyle=1;gradientColor=none;" vertex="1" parent="1">
          <mxGeometry x="964" y="635" width="270" height="270" as="geometry" />
        </mxCell>
        <mxCell id="S1qVPpaczXhBx_FuQNz0-167" value="公司" style="ellipse;whiteSpace=wrap;html=1;shadow=0;fontFamily=Helvetica;fontSize=20;fontColor=#FFFFFF;align=center;strokeWidth=3;fillColor=#736ca8;strokeColor=none;" vertex="1" parent="1">
          <mxGeometry x="315" y="680" width="120" height="120" as="geometry" />
        </mxCell>
        <mxCell id="S1qVPpaczXhBx_FuQNz0-168" value="是否有岗位" style="rounded=1;fillColor=#a29dc5;strokeColor=none;strokeWidth=3;shadow=0;html=1;fontColor=#FFFFFF;" vertex="1" parent="1">
          <mxGeometry x="205" y="580" width="120" height="40" as="geometry" />
        </mxCell>
        <mxCell id="S1qVPpaczXhBx_FuQNz0-169" value="职位列表" style="rounded=1;fillColor=#a29dc5;strokeColor=none;strokeWidth=3;shadow=0;html=1;fontColor=#FFFFFF;" vertex="1" parent="1">
          <mxGeometry x="312.5" y="520" width="120" height="40" as="geometry" />
        </mxCell>
        <mxCell id="S1qVPpaczXhBx_FuQNz0-173" value="员工人数" style="rounded=1;fillColor=#a29dc5;strokeColor=none;strokeWidth=3;shadow=0;html=1;fontColor=#FFFFFF;" vertex="1" parent="1">
          <mxGeometry x="70" y="600" width="120" height="40" as="geometry" />
        </mxCell>
        <mxCell id="S1qVPpaczXhBx_FuQNz0-176" value="ID" style="rounded=1;fillColor=#a29dc5;strokeColor=none;strokeWidth=3;shadow=0;html=1;fontColor=#FFFFFF;" vertex="1" parent="1">
          <mxGeometry x="285" y="850" width="120" height="40" as="geometry" />
        </mxCell>
        <mxCell id="S1qVPpaczXhBx_FuQNz0-177" value="logo" style="rounded=1;fillColor=#a29dc5;strokeColor=none;strokeWidth=3;shadow=0;html=1;fontColor=#FFFFFF;" vertex="1" parent="1">
          <mxGeometry x="145" y="815" width="120" height="40" as="geometry" />
        </mxCell>
        <mxCell id="S1qVPpaczXhBx_FuQNz0-178" value="公司名称" style="rounded=1;fillColor=#a29dc5;strokeColor=none;strokeWidth=3;shadow=0;html=1;fontColor=#FFFFFF;" vertex="1" parent="1">
          <mxGeometry x="40" y="760" width="120" height="40" as="geometry" />
        </mxCell>
        <mxCell id="S1qVPpaczXhBx_FuQNz0-179" value="" style="edgeStyle=none;endArrow=none;strokeWidth=3;strokeColor=#A29DC5;html=1;" edge="1" parent="1" source="S1qVPpaczXhBx_FuQNz0-167" target="S1qVPpaczXhBx_FuQNz0-168">
          <mxGeometry x="-1495" y="-345" width="100" height="100" as="geometry">
            <mxPoint x="-1495" y="-245" as="sourcePoint" />
            <mxPoint x="-1395" y="-345" as="targetPoint" />
          </mxGeometry>
        </mxCell>
        <mxCell id="S1qVPpaczXhBx_FuQNz0-180" value="是否需要融资" style="rounded=1;fillColor=#a29dc5;strokeColor=none;strokeWidth=3;shadow=0;html=1;fontColor=#FFFFFF;" vertex="1" parent="1">
          <mxGeometry x="80" y="690" width="120" height="40" as="geometry" />
        </mxCell>
        <mxCell id="S1qVPpaczXhBx_FuQNz0-181" value="" style="edgeStyle=none;endArrow=none;strokeWidth=3;strokeColor=#A29DC5;html=1;" edge="1" parent="1" source="S1qVPpaczXhBx_FuQNz0-167" target="S1qVPpaczXhBx_FuQNz0-169">
          <mxGeometry x="-1495" y="-345" width="100" height="100" as="geometry">
            <mxPoint x="-1495" y="-245" as="sourcePoint" />
            <mxPoint x="-1395" y="-345" as="targetPoint" />
          </mxGeometry>
        </mxCell>
        <mxCell id="S1qVPpaczXhBx_FuQNz0-185" value="" style="edgeStyle=none;endArrow=none;strokeWidth=3;strokeColor=#A29DC5;html=1;" edge="1" parent="1" source="S1qVPpaczXhBx_FuQNz0-167" target="S1qVPpaczXhBx_FuQNz0-173">
          <mxGeometry x="-1495" y="-345" width="100" height="100" as="geometry">
            <mxPoint x="-1495" y="-245" as="sourcePoint" />
            <mxPoint x="-1395" y="-345" as="targetPoint" />
          </mxGeometry>
        </mxCell>
        <mxCell id="S1qVPpaczXhBx_FuQNz0-188" value="" style="edgeStyle=none;endArrow=none;strokeWidth=3;strokeColor=#A29DC5;html=1;" edge="1" parent="1" source="S1qVPpaczXhBx_FuQNz0-167" target="S1qVPpaczXhBx_FuQNz0-176">
          <mxGeometry x="-1495" y="-345" width="100" height="100" as="geometry">
            <mxPoint x="-1495" y="-245" as="sourcePoint" />
            <mxPoint x="-1395" y="-345" as="targetPoint" />
          </mxGeometry>
        </mxCell>
        <mxCell id="S1qVPpaczXhBx_FuQNz0-189" value="" style="edgeStyle=none;endArrow=none;strokeWidth=3;strokeColor=#A29DC5;html=1;" edge="1" parent="1" source="S1qVPpaczXhBx_FuQNz0-167" target="S1qVPpaczXhBx_FuQNz0-177">
          <mxGeometry x="-1495" y="-345" width="100" height="100" as="geometry">
            <mxPoint x="-1495" y="-245" as="sourcePoint" />
            <mxPoint x="-1395" y="-345" as="targetPoint" />
          </mxGeometry>
        </mxCell>
        <mxCell id="S1qVPpaczXhBx_FuQNz0-190" value="" style="edgeStyle=none;endArrow=none;strokeWidth=3;strokeColor=#A29DC5;html=1;" edge="1" parent="1" source="S1qVPpaczXhBx_FuQNz0-167" target="S1qVPpaczXhBx_FuQNz0-178">
          <mxGeometry x="-1495" y="-345" width="100" height="100" as="geometry">
            <mxPoint x="-1495" y="-245" as="sourcePoint" />
            <mxPoint x="-1395" y="-345" as="targetPoint" />
          </mxGeometry>
        </mxCell>
        <mxCell id="S1qVPpaczXhBx_FuQNz0-191" value="" style="edgeStyle=none;endArrow=none;strokeWidth=3;strokeColor=#A29DC5;html=1;" edge="1" parent="1" source="S1qVPpaczXhBx_FuQNz0-167" target="S1qVPpaczXhBx_FuQNz0-180">
          <mxGeometry x="-1495" y="-345" width="100" height="100" as="geometry">
            <mxPoint x="-1495" y="-245" as="sourcePoint" />
            <mxPoint x="-1395" y="-345" as="targetPoint" />
          </mxGeometry>
        </mxCell>
        <mxCell id="S1qVPpaczXhBx_FuQNz0-192" value="" style="edgeStyle=none;endArrow=none;strokeWidth=3;strokeColor=#A29DC5;html=1;" edge="1" parent="1" source="S1qVPpaczXhBx_FuQNz0-5" target="S1qVPpaczXhBx_FuQNz0-110">
          <mxGeometry x="-1171" y="-450" width="100" height="100" as="geometry">
            <mxPoint x="-1171" y="-350" as="sourcePoint" />
            <mxPoint x="-1071" y="-450" as="targetPoint" />
          </mxGeometry>
        </mxCell>
        <mxCell id="S1qVPpaczXhBx_FuQNz0-193" style="edgeStyle=none;rounded=0;html=1;exitX=0.5;exitY=1;endArrow=none;endFill=0;jettySize=auto;orthogonalLoop=1;strokeColor=#736CA8;strokeWidth=2;fillColor=#64bbe2;fontSize=20;fontColor=#23445D;" edge="1" parent="1" source="S1qVPpaczXhBx_FuQNz0-180" target="S1qVPpaczXhBx_FuQNz0-180">
          <mxGeometry relative="1" as="geometry" />
        </mxCell>
      </root>
    </mxGraphModel>
  </diagram>
</mxfile>
